<svg width="172" height="68" viewBox="0 0 172 68" fill="none" xmlns="http://www.w3.org/2000/svg">
<g clip-path="url(#clip0_5918_23465)">
<path d="M32.0645 8.75365L33.388 12.7691L29.915 10.288L26.4276 12.7792L27.7335 8.72893L24.2068 6.21148H28.5465L29.8365 2.21062L29.8729 2.09863L29.9092 2.21062L31.2283 6.21148H35.6233L32.0645 8.75365Z" fill="#FB0A7E"/>
<path d="M23.0594 17.2121C23.0594 17.6033 23.0172 17.9843 22.9358 18.3508C22.4166 20.701 20.3194 22.4607 17.8122 22.4607C17.6653 22.4607 17.5227 22.4549 17.3788 22.4433C16.7432 22.3924 16.1411 22.2266 15.5899 21.9677C14.1342 21.2871 13.0434 19.9578 12.6871 18.3508C12.6057 17.9858 12.5635 17.6033 12.5635 17.2121C12.5635 16.8208 12.6057 16.4398 12.6871 16.0733C12.8456 15.3578 13.1496 14.6975 13.5655 14.1245C14.4817 12.868 15.939 12.0346 17.594 11.9677C17.6653 11.9648 17.738 11.9634 17.8107 11.9634C17.8834 11.9634 17.9561 11.9648 18.0274 11.9677C19.3319 12.0201 20.5129 12.5495 21.4029 13.3843C21.6429 13.6097 21.8625 13.8569 22.0574 14.1245C22.4747 14.6975 22.7787 15.3578 22.9358 16.0733C22.9779 16.2638 23.0099 16.4573 23.0288 16.6536C23.0492 16.8368 23.0594 17.023 23.0594 17.2106H23.0579L23.0594 17.2121Z" fill="#FB0A7E"/>
<path d="M35.6233 25.0044V25.877L2.71766 55.5628L11.7869 34.824L0.0111464 25.9148L-0.000488281 25.9061V25.0044H22.9096V25.1935L22.9401 25.0975L22.9707 25.0044H35.6233Z" fill="#FB0A7E"/>
<path d="M35.5986 25.8771V46.9343C35.5986 55.2153 28.8854 61.9285 20.6045 61.9285H14.982C9.91369 61.9285 5.43144 59.4125 2.71912 55.5629L12.6769 46.5722L13.4215 45.8989C13.8811 47.4855 15.3442 48.6446 17.0792 48.6446H18.5073C20.6103 48.6446 22.3162 46.9387 22.3162 44.8357V37.8695L22.8863 37.3547L35.6001 25.8771H35.5986Z" fill="#001846"/>
<path d="M57.4645 31.1919V45.0194C57.4645 46.1517 57.7119 47.0461 58.2098 47.7059C58.7062 48.364 59.5087 48.6923 60.6188 48.6923C61.7289 48.6923 62.5473 48.364 63.0786 47.7059C63.6098 47.0477 63.8763 46.1517 63.8763 45.0194V31.1919H71.5346V45.0194C71.5346 47.3538 71.0493 49.3457 70.0787 50.9966C69.1081 52.6491 67.7792 53.8909 66.0933 54.7219C64.4059 55.5545 62.5235 55.97 60.4444 55.97C58.3653 55.97 56.5224 55.5545 54.9175 54.7219C53.311 53.8893 52.0581 52.6555 51.1573 51.0141C50.2565 49.3742 49.8062 47.3744 49.8062 45.0194V31.1919H57.4645Z" fill="#001846"/>
<path d="M97.7935 31.1918L88.9918 48.2767V55.7272H81.2986V48.2767L72.4968 31.1918H81.2986L85.2142 39.8888L89.1297 31.1918H97.7935Z" fill="#001846"/>
<path d="M113.742 49.9054H121.157V55.7272H106.048V31.1918H113.742V49.9054Z" fill="#001846"/>
<path d="M139.315 52.0195H131.137L129.924 55.7274H121.848L130.825 31.1919H139.696L148.636 55.7274H140.527L139.314 52.0195H139.315ZM137.446 46.231L135.229 39.4037L133.01 46.231H137.446Z" fill="#001846"/>
<path d="M170.245 45.2793C171.065 46.3546 171.476 47.5963 171.476 49.0046C171.476 51.1535 170.765 52.8108 169.344 53.978C167.923 55.1452 165.884 55.7288 163.227 55.7288H150.371V31.1934H162.88C165.375 31.1934 167.338 31.7357 168.77 32.8221C170.202 33.9084 170.919 35.4896 170.919 37.5703C170.919 39.0039 170.543 40.2108 169.793 41.1909C169.041 42.1741 168.042 42.8259 166.796 43.1495C168.274 43.4952 169.424 44.2057 170.244 45.2809L170.245 45.2793ZM158.064 40.7563H161.044C161.737 40.7563 162.251 40.6184 162.585 40.3408C162.92 40.0633 163.088 39.6367 163.088 39.0594C163.088 38.4822 162.92 38.0143 162.585 37.7257C162.251 37.437 161.737 37.2927 161.044 37.2927H158.064V40.7579V40.7563ZM163.105 49.16C163.44 48.8936 163.608 48.4622 163.608 47.8612C163.608 46.6828 162.926 46.0929 161.564 46.0929H158.064V49.5581H161.564C162.257 49.5581 162.771 49.4249 163.105 49.16Z" fill="#001846"/>
</g>
<defs>
<clipPath id="clip0_5918_23465">
<rect width="171.476" height="66.8829" fill="white" transform="translate(0 0.675659)"/>
</clipPath>
</defs>
</svg>
